<?xml version="1.0" encoding="utf-8"?>
<!-- Generator: Adobe Illustrator 18.0.0, SVG Export Plug-In . SVG Version: 6.00 Build 0)  -->
<!DOCTYPE svg PUBLIC "-//W3C//DTD SVG 1.1//EN" "http://www.w3.org/Graphics/SVG/1.1/DTD/svg11.dtd">
<svg version="1.1" id="Layer_1" xmlns="http://www.w3.org/2000/svg" xmlns:xlink="http://www.w3.org/1999/xlink" x="0px" y="0px"
	 viewBox="0 0 491.8 432.4" enable-background="new 0 0 491.8 432.4" xml:space="preserve">
<rect x="1.5" y="4.3" fill="#FFFFFF" stroke="#ED1C24" stroke-width="3" stroke-miterlimit="10" width="488.8" height="426.5"/>
<line fill="none" stroke="#ED1C24" stroke-width="3" stroke-miterlimit="10" x1="2.5" y1="39" x2="491.3" y2="39"/>
<line fill="none" stroke="#ED1C24" stroke-width="3" stroke-miterlimit="10" x1="371.4" y1="21.7" x2="395" y2="21.7"/>
<rect x="416.3" y="11.5" fill="none" stroke="#ED1C24" stroke-width="3" stroke-miterlimit="10" width="21.4" height="21.4"/>
<line fill="none" stroke="#ED1C24" stroke-width="3" stroke-miterlimit="10" x1="460.1" y1="11.5" x2="480.5" y2="31.9"/>
<line fill="none" stroke="#ED1C24" stroke-width="3" stroke-miterlimit="10" x1="460.1" y1="31.9" x2="480.5" y2="11.5"/>
<text transform="matrix(1 0 0 1 198.8486 30.911)" fill="#ED1C24" font-family="'Helvetica'" font-size="36">Stage</text>
<rect x="11.7" y="48.2" fill="none" stroke="#39B54A" stroke-width="3" stroke-miterlimit="10" width="468.9" height="370.4"/>
<text transform="matrix(1 0 0 1 194.8496 85.2987)" fill="#009444" font-family="'Helvetica'" font-size="36">Scene</text>
<circle fill="#1C75BC" stroke="#1C75BC" stroke-width="3" stroke-miterlimit="10" cx="149.9" cy="222.2" r="57.7"/>
<rect x="219.8" y="201.8" fill="none" width="201" height="40.8"/>
<text transform="matrix(1 0 0 1 219.8277 219.0443)" fill="#1C75BC" font-family="'Helvetica'" font-size="24">some random text</text>
<text transform="matrix(1 0 0 1 139.8218 366.2987)" fill="#1C75BC" font-family="'Helvetica'" font-size="36">Scene Graph</text>
</svg>
